PathFileType	4	(X/Y/Z)	T1_P2_NoVision_Movement_3_0-732.trc
DataRate	CameraRate	NumFrames	NumMarkers	Units	OrigDataRate	OrigDataStartFrame	OrigNumFrames
60	60	4	27	m	60	0	732
Frame#	Time	RHip			RKnee			RAnkle			RBigToe			RSmallToe			RHeel			LHip			LKnee			LAnkle			LBigToe			LSmallToe			LHeel			Neck			Head			Nose			RShoulder			RElbow			RWrist			RThumb			RIndex			RPinky			LShoulder			LElbow			LWrist			LThumb			LIndex			LPinky		
		X1	Y1	Z1	X2	Y2	Z2	X3	Y3	Z3	X4	Y4	Z4	X5	Y5	Z5	X6	Y6	Z6	X7	Y7	Z7	X8	Y8	Z8	X9	Y9	Z9	X10	Y10	Z10	X11	Y11	Z11	X12	Y12	Z12	X13	Y13	Z13	X14	Y14	Z14	X15	Y15	Z15	X16	Y16	Z16	X17	Y17	Z17	X18	Y18	Z18	X19	Y19	Z19	X20	Y20	Z20	X21	Y21	Z21	X22	Y22	Z22	X23	Y23	Z23	X24	Y24	Z24	X25	Y25	Z25	X26	Y26	Z26	X27	Y27	Z27
1	0.016666666666666666	466.462945336113	3603.4312980389254	553.4751355834326	865.7394245775196	3638.2155566254037	567.2618563013582	1241.4297278110575	3701.915154188127	623.3963219986741	1325.1463073910031	3606.1750995831558	606.7293259507418	1301.563955671558	3617.541066880815	543.0545149263128	1262.9473227997269	3686.5515545237154	627.7752199292498	469.321824052505	3510.7075736396046	743.2882447707651	878.2550697983423	3532.3674037498463	745.228105205605	1231.7594244194606	3591.190094056003	730.2620570650363	1331.8521134857592	3563.216707015836	685.620475988488	1285.9702369524907	3479.7409446451384	718.186585392161	1267.3585507543269	3613.8474645914293	723.4336947471112	-116.95091459824867	3546.92512909424	663.1451568772247	-373.4174454017129	3496.282454143655	636.4542107663557	-227.9285939200726	3384.642297326399	591.3224891547803	-35.384769542401365	3642.9829816321567	545.5978467779565	216.00419372900583	3727.181850463688	490.03380196142103	441.04668046446284	3634.73921750705	408.81136937090247	559.6910002596277	3553.52512775107	408.847489328948	579.675794156298	3560.448604223173	394.9966931560039	587.1841764240221	3658.897345411652	399.9298590112359	-17.700999736598344	3517.165207172911	847.2358441462087	237.6647166372781	3449.214288086563	849.4012477130797	488.9411515337988	3435.572053706906	855.3099852750098	595.4688312683131	3424.2914714130784	816.0160044098967	596.9241931816996	3373.481325075714	814.0745866039003	598.9652957541721	3376.93869633999	863.716183728731
2	0.03333333333333333	466.6380372924111	3605.0890178783534	553.441332522111	865.8276852549294	3638.419809829423	567.2661275469162	1235.7512276262644	3698.842998895762	623.0271784028549	1330.5059044036693	3632.304206652666	614.8849303961643	1309.1365713590483	3637.9170092134923	548.4886949278944	1268.7171579852463	3688.4845194409295	629.546442299046	471.4322100408893	3494.2856706271828	738.537503406047	882.3055075381494	3527.5160697466345	742.6310837264094	1232.0778067951287	3591.7363037534774	730.6288733676262	1339.5999696832787	3583.6040774487687	691.2614996086761	1288.0493993267748	3498.1779547661135	722.7165392589261	1267.5494486500506	3614.269373193145	723.6856621508748	-116.85739111569772	3546.6065191480343	662.85932973958	-377.5678022243653	3492.797707758371	634.8056761158855	-227.8401873997111	3382.4750162062514	595.5326350407579	-35.39934921969481	3643.314106575914	545.7433832356969	213.2413556353619	3753.2322998937602	497.1028109386475	443.730603073896	3651.3612753339044	416.7668264315249	563.8766703461886	3566.7707147222377	425.16600822845385	579.7067410211023	3559.530119177395	394.5019126370815	587.7238946389986	3656.5155805813574	399.5691023020521	-17.75513491428648	3516.977807837643	847.1609594622684	241.82298494483433	3450.6327642783926	850.3604017033033	488.85292845237853	3435.5884120375395	855.289177548533	599.5758948959017	3426.8370694559035	818.1984082220881	600.8577755790038	3394.3826518077353	822.260191878672	602.7785628569314	3396.274609166383	870.3520567604052
3	0.05	471.9350704631818	3607.3904441110626	554.7389094947524	866.0255119919335	3638.5016256427693	567.2450885436499	1241.8073204010557	3702.482796173335	623.8532529971852	1325.335996695202	3606.535734966627	607.0083295101775	1309.6891270445276	3634.066964758254	556.0089168882262	1268.925483027899	3688.52295201494	629.568527313785	475.03748668304945	3514.7492332886054	745.1983432023185	882.1922729149533	3527.376816155845	742.4695619399495	1236.4681631797996	3600.943364033547	734.3888932973807	1332.0857760217307	3563.612398685175	685.6888094645318	1279.9774116671429	3479.6041529246736	713.4652846450235	1274.2083019391396	3618.6517618909606	724.8424434233858	-116.72813894474233	3546.8910423920793	663.0134623037317	-373.4478148087103	3496.332165004467	636.4838209981948	-227.75738548263556	3382.318697553444	595.3183553271731	-35.308101940373405	3643.514014296316	545.800831786872	213.51839180003628	3753.5600775836715	497.25924987417676	441.01635306010564	3631.3348597089207	412.7815221847777	559.9430237588142	3552.5911115309223	408.38174742844774	579.6970040082535	3559.489979850099	394.4775102142751	582.6857249706162	3653.7701643771907	398.2007466006084	-17.629116375319196	3517.3583311761836	847.3104764132829	241.90390054825008	3450.6788637724117	850.3725108833091	488.89046553788995	3435.5485270026707	855.2959936183087	595.6153435388649	3425.075146283886	816.7669598481306	600.8112781662852	3394.1312843425103	822.0107166751918	598.5990678035317	3375.583180840245	862.3323514353027
4	0.06666666666666667	472.0004797975653	3607.4089251059536	554.7535962662503	871.8314235040898	3642.5585470146475	568.3806448100793	1241.568463393889	3701.9785905684084	623.6286291952622	1317.3070250242872	3609.937490370688	607.8944121203065	1296.4647544905672	3615.6710318868054	541.5462913996432	1263.1277090183855	3686.9921124882735	628.0995175125789	475.21196791251583	3514.9526982211387	745.3647850200838	881.8624209509006	3527.1261807315573	742.1792510676753	1238.743754826075	3595.835362062658	731.5017643417141	1332.0025049731526	3563.4022147703736	685.7551556844401	1280.5855231099977	3478.3590289122817	716.6501709043483	1274.221364030845	3618.133254714384	724.474041612284	-116.72790665346372	3546.785792487613	662.9370548861223	-373.4534173769161	3496.58256658151	636.6232038348587	-228.43679286039335	3401.5589200551053	600.7799060868224	-35.30395467714365	3643.5554003460534	545.8479633065809	218.37351870750496	3757.827396312693	498.64617655681695	441.04636789061544	3631.4222079905157	412.85836801290264	554.6382230861016	3547.0849296821752	411.77894603716203	574.6670982755318	3556.9429025963404	393.22233510948945	582.8291812731559	3653.071251509518	398.18509534913534	-17.623633094357324	3517.302922756554	847.318205091067	241.9119556537442	3450.7371133457646	850.4286174627575	488.8815030021148	3435.620537148124	855.4021209190633	595.7827459122682	3425.2097632461523	817.0094613440209	600.8088103881826	3394.2612360501385	822.1708818800628	598.5280071325394	3375.414466944357	862.3161399953317
